Coordinates
version=1
nRows=60
nColumns=12
inDegrees=yes

Units are S.I. units (second, meters, Newtons, ...)
Angles are in degrees

endheader
time	SC_y	SC_z	SC_x	AC_y	AC_z	AC_x	GH_y	GH_z	GH_yy	EL_x	PS_y
       0.0              -18.41          17.42          3.895          54.29         -17.28           14.2         -21.39         -11.19         -31.68          28.75          77.13
   0.03667              -18.41          17.42          3.905          54.29         -17.28           14.2          -21.4         -11.18         -31.66          28.76          77.13
   0.07334              -18.41          17.42          3.915          54.29         -17.27           14.2         -21.41         -11.16         -31.64          28.77          77.12
      0.11              -18.42          17.42          3.927           54.3         -17.27           14.2         -21.42         -11.15         -31.62          28.79          77.12
    0.1467              -18.42          17.42          3.939           54.3         -17.27           14.2         -21.43         -11.13         -31.59           28.8          77.11
    0.1833              -18.43          17.42          3.951           54.3         -17.27           14.2         -21.45         -11.11         -31.57          28.81          77.11
      0.22              -18.43          17.43          3.965           54.3         -17.27           14.2         -21.46         -11.09         -31.54          28.82           77.1
    0.2567              -18.44          17.43           3.98           54.3         -17.26           14.2         -21.47         -11.07         -31.51          28.84           77.1
    0.2933              -18.44          17.43          3.995          54.31         -17.26           14.2         -21.49         -11.05         -31.47          28.85          77.09
      0.33              -18.45          17.43          4.012          54.31         -17.26           14.2          -21.5         -11.02         -31.44          28.87          77.09
    0.3667              -18.45          17.43           4.03          54.31         -17.25           14.2         -21.52         -10.99          -31.4          28.89          77.08
    0.4033              -18.46          17.43           4.05          54.32         -17.25           14.2         -21.54         -10.97         -31.36           28.9          77.07
      0.44              -18.46          17.43          4.071          54.32         -17.25           14.2         -21.56         -10.94         -31.32          28.92          77.07
    0.4767              -18.47          17.43          4.093          54.32         -17.24           14.2         -21.58          -10.9         -31.27          28.95          77.06
    0.5133              -18.48          17.43          4.118          54.33         -17.24           14.2          -21.6         -10.87         -31.22          28.97          77.05
      0.55              -18.49          17.43          4.144          54.33         -17.23          14.19         -21.62         -10.83         -31.17           29.0          77.04
    0.5867               -18.5          17.44          4.173          54.33         -17.23          14.19         -21.65         -10.79         -31.11          29.02          77.03
    0.6233              -18.51          17.44          4.205          54.34         -17.22          14.19         -21.68         -10.74         -31.05          29.05          77.02
      0.66              -18.52          17.44          4.239          54.34         -17.22          14.19         -21.71         -10.69         -30.98          29.09          77.01
    0.6967              -18.53          17.44          4.277          54.35         -17.21          14.19         -21.74         -10.64          -30.9          29.12          76.99
    0.7334              -18.54          17.44          4.318          54.36          -17.2          14.19         -21.78         -10.58         -30.81          29.16          76.98
      0.77              -18.56          17.44          4.364          54.36          -17.2          14.19         -21.82         -10.51         -30.72          29.21          76.96
    0.8067              -18.57          17.45          4.414          54.37         -17.19          14.18         -21.87         -10.44         -30.62          29.26          76.94
    0.8434              -18.59          17.45          4.469          54.38         -17.18          14.18         -21.92         -10.35         -30.51          29.31          76.92
      0.88              -18.61          17.45          4.531          54.39         -17.17          14.18         -21.98         -10.26         -30.38          29.37           76.9
    0.9167              -18.63          17.46            4.6           54.4         -17.15          14.18         -22.04         -10.16         -30.24          29.44          76.87
    0.9534              -18.66          17.46          4.678          54.41         -17.14          14.17         -22.11         -10.05         -30.08          29.51          76.85
      0.99              -18.68          17.46          4.765          54.43         -17.13          14.17         -22.19         -9.924          -29.9          29.59          76.82
     1.027              -18.71          17.47          4.863          54.44         -17.11          14.17         -22.28         -9.781          -29.7          29.69          76.78
     1.063              -18.75          17.47          4.974          54.46         -17.09          14.16         -22.39         -9.619         -29.47           29.8          76.74
       1.1              -18.79          17.48          5.102          54.48         -17.07          14.16          -22.5         -9.433         -29.21          29.92          76.69
     1.137              -18.83          17.49          5.248           54.5         -17.04          14.15         -22.64          -9.22         -28.91          30.06          76.64
     1.173              -18.89          17.49          5.417          54.53         -17.01          14.15         -22.79         -8.974         -28.57          30.22          76.58
      1.21              -18.95           17.5          5.613          54.56         -16.98          14.14         -22.97         -8.688         -28.17          30.41          76.51
     1.247              -19.02          17.51          5.842          54.59         -16.94          14.13         -23.18         -8.354          -27.7          30.63          76.42
     1.283              -19.11          17.53          6.113          54.64         -16.89          14.12         -23.43         -7.959         -27.14           30.9          76.33
      1.32              -19.21          17.54          6.434          54.68         -16.84          14.11         -23.73         -7.491         -26.49          31.21          76.21
     1.357              -19.33          17.56          6.819          54.74         -16.77           14.1         -24.08         -6.929          -25.7          31.58          76.07
     1.393              -19.48          17.58          7.285          54.82         -16.69          14.08         -24.51          -6.25         -24.75          32.03           75.9
      1.43              -19.66          17.61          7.855          54.91         -16.59          14.06         -25.03          -5.42         -23.58          32.58           75.7
     1.467              -19.88          17.64          8.558          55.01         -16.47          14.03         -25.68         -4.395         -22.14          33.26          75.44
     1.503              -20.15          17.69          9.434          55.15         -16.32           14.0         -26.49         -3.118         -20.35           34.1          75.12
      1.54               -20.5          17.74          10.54          55.32         -16.13          13.96          -27.5         -1.509         -18.09          35.17          74.72
     1.577              -20.94          17.81          11.94          55.54         -15.88          13.91         -28.79         0.5368         -15.22          36.52          74.22
     1.613              -21.51          17.89          13.74          55.82         -15.57          13.84         -30.44          3.155         -11.55          38.26          73.57
      1.65              -22.24           18.0          16.04          56.17         -15.17          13.76         -32.56          6.515         -6.833          40.48          72.73
     1.687              -23.16          18.14          18.99          56.63         -14.66          13.65         -35.27          10.81          -0.81          43.32          71.66
     1.723              -24.33          18.32          22.69           57.2         -14.02          13.52         -38.67           16.2          6.763           46.9          70.32
      1.76              -25.75          18.53           27.2           57.9         -13.24          13.35         -42.82          22.78          15.99          51.25          68.69
     1.797               -27.4          18.78          32.43          58.71         -12.33          13.16         -47.62           30.4          26.69           56.3           66.8
     1.833              -29.19          19.05          38.09          59.59         -11.35          12.95         -52.83          38.66          38.27          61.77          64.75
      1.87              -30.97          19.32          43.75          60.47         -10.37          12.74         -58.03          46.91          49.85          67.23           62.7
     1.907              -32.62          19.57          48.98          61.28         -9.462          12.55         -62.84          54.53          60.55          72.28           60.8
     1.943              -34.04          19.79          53.49          61.98          -8.68          12.39         -66.99          61.11          69.78          76.63          59.17
      1.98              -35.21          19.96           57.2          62.55         -8.038          12.25         -70.39          66.51          77.35          80.21          57.83
     2.017              -36.14           20.1          60.14          63.01         -7.527          12.14         -73.09           70.8          83.37          83.05          56.76
     2.053              -36.86          20.21          62.45          63.37         -7.128          12.06         -75.21          74.16          88.09          85.28          55.93
      2.09              -37.43           20.3          64.24          63.64         -6.817          11.99         -76.86          76.78          91.76          87.01          55.28
     2.127              -37.87          20.37          65.64          63.86         -6.573          11.94         -78.15          78.82          94.63          88.36          54.77
     2.163              -38.22          20.42          66.75          64.03         -6.382           11.9         -79.17          80.43          96.89          89.43          54.37
